<svg xmlns="http://www.w3.org/2000/svg" width="365" height="511"><rect id="backgroundrect" width="100%" height="100%" x="0" y="0" fill="none" stroke="none" class="" style=""/>
	<title>HTML5 Logo</title>
	
	
	
	
	
<g class="currentLayer" style=""><title>Layer 1</title><path d="M33.5851858496666,-2.220446049250313e-16 h23 v22.8 h21.2 V-2.220446049250313e-16 h23 v69 h-23 V46 h-21 v23 h-23.2 M131.1851858496666,23 h-20.3 V-2.220446049250313e-16 h63.7 v23 H154.1851858496666 v46 h-23 M184.6851858496666,-2.220446049250313e-16 h24.1 l14.8,24.3 L238.38518584966658,-2.220446049250313e-16 h24.1 v69 h-23 V34.8 l-16.1,24.8 l-16.1,-24.8 v34.2 h-22.6 M273.8851858496666,-2.220446049250313e-16 h23 v46.2 h32.6 V69 h-55.6 " id="svg_1" class=""/><path fill="#e44d26" d="M32.78518584966659,471 l-33,-370.4 h362.8 l-33,370.2 L180.88518584966658,512 " id="svg_2" class=""/><path fill="#f16529" d="M181.1851858496666,480.5 V131 H329.4851858496666 L301.1851858496666,447 " id="svg_3" class=""/><path fill="#ebebeb" d="M67.1851858496666,176.3 h114 v45.4 h-64.2 l4.2,46.5 h60 v45.3 H79.5851858496666 M81.5851858496666,336.3 H127.1851858496666 l3.2,36.3 l50.8,13.6 v47.4 l-93.2,-26 " id="svg_4" class=""/><path fill="#fff" d="M294.7851858496666,176.3 H180.9851858496666 v45.4 h109.6 M286.4851858496666,268.2 H180.9851858496666 v45.4 h56 l-5.3,59 l-50.7,13.6 v47.2 l93,-25.8 " id="svg_5" class=""/></g></svg>