<?xml version="1.0" standalone="no"?>
<!DOCTYPE svg PUBLIC "-//W3C//DTD SVG 20010904//EN"
 "http://www.w3.org/TR/2001/REC-SVG-20010904/DTD/svg10.dtd">
<svg version="1.0" xmlns="http://www.w3.org/2000/svg"
 width="150.000000pt" height="84.000000pt" viewBox="0 0 150.000000 84.000000"
 preserveAspectRatio="xMidYMid meet">
<metadata>
Created by potrace 1.15, written by Peter Selinger 2001-2017
</metadata>
<g transform="translate(0.000000,84.000000) scale(0.100000,-0.100000)"
fill="#000000" stroke="none">
<path d="M544 795 c-238 -37 -427 -136 -502 -264 -22 -38 -27 -58 -27 -116 0
-58 5 -78 27 -116 107 -182 418 -292 777 -276 314 15 556 118 649 276 22 38
27 58 27 116 0 85 -27 138 -106 209 -162 146 -530 220 -845 171z m190 -165
l-7 -50 62 0 c67 0 116 -19 125 -47 3 -10 -3 -61 -14 -113 -11 -52 -20 -98
-20 -102 0 -5 -15 -8 -33 -8 l-34 0 18 93 c24 123 23 127 -55 127 l-63 0 -13
-62 c-31 -164 -29 -158 -61 -158 -18 0 -29 5 -29 13 0 12 52 278 65 335 4 17
13 22 36 22 l30 0 -7 -50z m-189 -65 c57 -28 70 -88 34 -161 -29 -61 -74 -86
-165 -92 l-74 -5 -10 -36 c-5 -20 -10 -42 -10 -48 0 -8 -13 -13 -34 -13 l-33
0 23 123 c13 67 29 150 36 185 l11 62 95 0 c64 0 104 -5 127 -15z m660 0 c57
-28 70 -88 34 -161 -29 -61 -74 -86 -165 -92 -78 -5 -76 -3 -89 -70 -6 -28
-10 -32 -39 -32 l-33 0 34 173 c19 94 36 178 38 185 7 19 178 16 220 -3z"/>
<path d="M370 488 c-6 -29 -14 -72 -17 -95 l-6 -43 34 0 c95 0 149 45 149 122
0 49 -27 68 -96 68 l-52 0 -12 -52z"/>
<path d="M1040 536 c0 -2 -7 -40 -15 -83 -22 -113 -25 -107 46 -100 80 7 110
34 117 105 4 43 1 51 -19 66 -21 14 -129 24 -129 12z"/>
</g>
</svg>
